<?xml version="1.0" encoding="iso-8859-1"?>
<!-- Generator: Adobe Illustrator 16.0.0, SVG Export Plug-In . SVG Version: 6.00 Build 0)  -->
<!DOCTYPE svg PUBLIC "-//W3C//DTD SVG 1.1//EN" "http://www.w3.org/Graphics/SVG/1.1/DTD/svg11.dtd">
<svg version="1.1" id="Capa_1" xmlns="http://www.w3.org/2000/svg" xmlns:xlink="http://www.w3.org/1999/xlink" x="0px" y="0px"
	 width="30.607px" height="30.607px" viewBox="0 0 30.607 30.607" style="enable-background:new 0 0 30.607 30.607;"
	 xml:space="preserve">
<g>
	<g>
		<path d="M21.869,13.06c-0.102,0.026-0.182,0.07-0.278,0.101c0.349-0.433,0.668-0.889,0.923-1.387
			c0.287-0.56,0.512-1.157,0.66-1.783c0.039-0.157,0.072-0.316,0.102-0.479c0.08-0.461,0.125-0.933,0.125-1.416
			c0-0.027-0.002-0.055-0.002-0.083c-0.002-0.237-0.014-0.472-0.035-0.704c-0.075-0.771-0.26-1.511-0.537-2.203
			c-0.021-0.052-0.039-0.104-0.062-0.156c-0.368-0.869-0.886-1.66-1.519-2.345c-0.041-0.044-0.084-0.089-0.125-0.132
			C21,2.349,20.878,2.227,20.75,2.112C19.311,0.8,17.4,0,15.305,0c-2.111,0-4.038,0.813-5.48,2.145
			c-0.336,0.31-0.646,0.648-0.926,1.012c-1.058,1.366-1.69,3.081-1.69,4.939c0,1.284,0.309,2.495,0.844,3.575
			c-2.467-1.285-5.592,0.254-6.963-0.405c1.494,2.284,1.206,2.812,3.716,5.318c1.678,1.678,3.243,1.782,4.3,1.489
			c2.142,2.067,3.477,4.212,3.479,7.227c-0.221-0.178-0.485-0.315-0.795-0.315c-0.868,0-1.501,0.488-1.804,1.184
			c-1.912-0.65-3.179-0.141-3.291,1.133c-0.909-0.335-2.062,0.711-2.062,1.62c0,0.896,0.708,1.624,1.596,1.658l14.07,0.028
			c0,0,1.5-0.809,1.5-1.688c0-0.923-0.747-1.672-1.669-1.672c-0.126,0-0.249,0.018-0.366,0.048c0.008-0.065-0.162-1.899-2.624-0.763
			c-0.19-0.887-0.442-1.551-1.919-1.551c-0.729,0-1.224,0.265-1.541,0.533c0.621-3.132,2.571-5.406,5.346-7.024
			c0.027-0.019,0.043-0.041,0.064-0.063c0.859,0.688,2.357,1.219,4.582,0.297c3.275-1.358,3.594-2.88,5.846-4.422
			C27.88,14.396,24.945,12.251,21.869,13.06z M22.533,6.388c0.012,0.042,0.021,0.084,0.031,0.128L22.51,6.415L22.533,6.388z
			 M21.876,4.776l0.047-0.053c0.062,0.12,0.118,0.241,0.174,0.364L22.02,5.086l-0.144,0.02V4.776z M20.705,3.364l0.002-0.362
			c0.127,0.136,0.25,0.273,0.365,0.418l-0.146,0.217l-0.509-0.004l-0.032-0.107L20.705,3.364z M10.94,2.466V2.451h0.162l0.014-0.056
			h0.267v0.116l-0.076,0.104H10.94V2.466z M11.199,2.826c0,0,0.162-0.026,0.176-0.026c0.014,0,0,0.162,0,0.162l-0.366,0.022
			L10.94,2.9L11.199,2.826z M9.03,4.125l0.013,0.134L8.735,4.634C8.826,4.46,8.926,4.291,9.03,4.125z M8.469,5.189v0.422L8.778,5.76
			v0.587l0.296,0.506L9.315,6.89l0.03-0.173l-0.284-0.44L9.005,5.854h0.167L9.243,6.29l0.41,0.6L9.547,7.084l0.262,0.398l0.648,0.16
			V7.537l0.259,0.038L10.692,7.76l0.203,0.037l0.314,0.086l0.445,0.507l0.568,0.044l0.055,0.462l-0.389,0.271L11.87,9.582
			l-0.057,0.253l0.563,0.704l0.043,0.24c0,0,0.203,0.056,0.228,0.056s0.458,0.327,0.458,0.327v1.272l0.154,0.044l-0.105,0.585
			l0.259,0.347l-0.047,0.58l0.343,0.603l0.439,0.385l0.442,0.008l0.043-0.143L14.31,14.57l0.018-0.137l0.059-0.166l0.013-0.17
			l-0.22-0.006l-0.11-0.141l0.183-0.176l0.024-0.133l-0.204-0.059l0.013-0.122l0.289-0.044l0.442-0.212l0.148-0.272l0.462-0.593
			l-0.104-0.464l0.143-0.247l0.426,0.014l0.286-0.227l0.094-0.896l0.318-0.403l0.055-0.259l-0.289-0.094L16.164,9.45L15.51,9.443
			l-0.519-0.197l-0.024-0.37l-0.173-0.304l-0.47-0.006L14.05,8.143l-0.24-0.117l-0.014,0.13l-0.438,0.025l-0.161-0.224L12.74,7.864
			l-0.376,0.437l-0.593-0.102L11.73,7.531l-0.434-0.073l0.173-0.328L11.42,6.941l-0.569,0.38l-0.357-0.044l-0.127-0.278l0.076-0.288
			l0.198-0.363l0.454-0.23h0.876l-0.003,0.268l0.315,0.146l-0.025-0.456l0.228-0.229l0.458-0.301l0.03-0.212l0.458-0.476
			l0.486-0.268l-0.044-0.035l0.329-0.312l0.121,0.032l0.055,0.069l0.125-0.138l0.03-0.015l-0.137-0.019l-0.138-0.046V3.993
			l0.072-0.06h0.162l0.074,0.033l0.065,0.13l0.078-0.013V4.072l0.022,0.008l0.229-0.034l0.032-0.112l0.13,0.033v0.119L15.005,4.17
			l0.018,0.132l0.412,0.127c0,0,0.001,0.003,0.001,0.005l0.097-0.008l0.005-0.179L15.21,4.098l-0.018-0.085l0.271-0.093l0.012-0.26
			l-0.283-0.173l-0.019-0.438L14.785,3.24h-0.143l0.037-0.334l-0.53-0.124L13.93,2.948v0.505l-0.394,0.123l-0.158,0.33l-0.17,0.027
			v-0.42l-0.371-0.051l-0.185-0.12l-0.074-0.273l0.661-0.388l0.325-0.1L13.597,2.8l0.182-0.011l0.014-0.108l0.188-0.028l0.004-0.037
			l-0.081-0.034l-0.019-0.115l0.232-0.02l0.14-0.146l0.008-0.011h0.002l0.043-0.043l0.487-0.062l0.215,0.182l-0.564,0.302
			l0.72,0.171l0.093-0.241h0.315l0.11-0.21l-0.222-0.055V2.068L14.767,1.76l-0.481,0.054l-0.273,0.144l0.02,0.346L13.747,2.26
			l-0.044-0.191l0.272-0.248l-0.494-0.024L13.338,1.84l-0.061,0.167l0.185,0.03l-0.037,0.186L13.112,2.24l-0.051,0.123l-0.456,0.014
			c0,0-0.013-0.26-0.031-0.26s0.357-0.006,0.357-0.006l0.272-0.267L13.055,1.77l-0.197,0.191L12.53,1.943l-0.197-0.271h-0.42
			l-0.438,0.327h0.402l0.036,0.118l-0.104,0.099l0.445,0.012l0.067,0.161l-0.5-0.02l-0.025-0.122l-0.314-0.069l-0.166-0.092
			L10.941,2.09c1.227-0.895,2.734-1.423,4.364-1.423c1.879,0,3.598,0.702,4.905,1.855L20.121,2.68l-0.344,0.133l-0.143,0.158
			l0.033,0.183l0.176,0.024l0.105,0.267l0.306-0.123l0.051,0.355h-0.092l-0.251-0.036l-0.277,0.047l-0.269,0.378l-0.386,0.061
			l-0.055,0.329l0.162,0.038l-0.046,0.212L18.71,4.631l-0.351,0.076l-0.074,0.194l0.062,0.408l0.205,0.097l0.345-0.002l0.232-0.021
			l0.07-0.186l0.365-0.473l0.236,0.049l0.237-0.212l0.044,0.166l0.58,0.392l-0.07,0.094L20.333,5.2l0.1,0.143l0.162,0.035
			l0.188-0.079l-0.004-0.227l0.082-0.041L20.796,4.96l-0.388-0.217l-0.103-0.286h0.322l0.103,0.102l0.277,0.238l0.012,0.289
			l0.287,0.306l0.106-0.419l0.198-0.107l0.037,0.342l0.194,0.213l0.388-0.006c0.074,0.192,0.142,0.389,0.2,0.589l-0.04,0.036h-0.592
			l-0.361-0.269l-0.38,0.037V6.04h-0.12l-0.13-0.093L20.15,5.781V5.355L19.316,5.42l-0.26,0.139h-0.33l-0.162-0.017l-0.401,0.224
			v0.42L17.34,6.777l0.068,0.254h0.166l-0.043,0.241l-0.117,0.043l-0.006,0.63l0.709,0.809h0.311l0.018-0.05h0.558l0.159-0.147
			h0.316L19.65,8.73l0.469,0.048l-0.062,0.624l0.521,0.921l-0.273,0.525l0.02,0.246l0.217,0.216v0.595l0.283,0.381v0.495h0.244
			c-1.363,1.673-3.438,2.746-5.763,2.746c-4.097,0-7.43-3.333-7.43-7.431C7.875,7.064,8.087,6.082,8.469,5.189z M11.625,3.679
			l0.195-0.093l0.175,0.042l-0.061,0.236l-0.189,0.06L11.625,3.679z M12.657,4.234v0.154h-0.443L12.046,4.34l0.042-0.106
			l0.213-0.087h0.292v0.087H12.657z M12.862,4.447v0.149L12.75,4.668l-0.138,0.024c0,0,0-0.222,0-0.245H12.862z M12.736,4.389V4.211
			l0.151,0.139L12.736,4.389z M12.806,4.743v0.146l-0.107,0.106h-0.235l0.037-0.163l0.112-0.01l0.022-0.056L12.806,4.743z
			 M12.218,4.447h0.245l-0.315,0.441l-0.129-0.071l0.027-0.185L12.218,4.447z M13.223,4.692v0.146h-0.236l-0.065-0.095V4.609h0.019
			L13.223,4.692z M13.005,4.495l0.066-0.071l0.114,0.071l-0.09,0.075L13.005,4.495z M13.219,26.074c0,0-0.008-0.018-0.015-0.032
			l0.091-0.094C13.249,26.021,13.219,26.074,13.219,26.074z M25.898,15.049c-0.274,0.116-0.666,0.267-1.137,0.446
			c-0.24,0.086-0.492,0.182-0.768,0.279c-0.271,0.095-0.551,0.197-0.848,0.301c-0.293,0.104-0.595,0.212-0.896,0.319
			c-0.303,0.104-0.617,0.222-0.93,0.342c-0.293,0.108-0.598,0.257-0.896,0.375c-0.295,0.136-0.802,0.311-1.087,0.435
			c-0.348,0.146-0.566,0.224-0.788,0.34c-2.462,1.438-4.554,2.983-5.218,5.673c-0.121-2.528-1.65-3.981-3.478-5.791
			c0,0,0.002-0.004,0.007-0.004c-0.245-0.23-0.505-0.479-0.767-0.744c-0.219-0.226-0.448-0.449-0.671-0.688
			c-0.229-0.222-0.455-0.473-0.685-0.685c-0.242-0.233-0.487-0.464-0.726-0.671c-0.242-0.217-0.479-0.432-0.708-0.637
			c-0.233-0.213-0.461-0.414-0.671-0.606c-0.212-0.194-0.414-0.377-0.598-0.548c-0.368-0.347-0.676-0.637-0.884-0.847
			c-0.208-0.212-0.327-0.333-0.327-0.333s0.622,0.285,1.486,0.81c0.433,0.265,0.933,0.577,1.448,0.944
			c0.264,0.178,0.526,0.372,0.797,0.584c0.134,0.104,0.266,0.21,0.4,0.316l0.379,0.326c0.067,0.061,0.121,0.1,0.197,0.176
			l0.184,0.18c0.124,0.121,0.247,0.24,0.359,0.361c0.228,0.247,0.45,0.49,0.652,0.732c0.199,0.246,0.396,0.479,0.567,0.717
			c0.034,0.052,0.068,0.098,0.105,0.145c0.31-0.5,0.431-1.573,0.06-2.729c1.353,1.016,3.025,1.624,4.843,1.624
			c1.215,0,2.365-0.273,3.4-0.756c-0.394,0.701-0.545,1.385-0.477,1.814c0.053-0.033,0.102-0.062,0.153-0.097
			c0.247-0.15,0.521-0.295,0.799-0.444c0.276-0.147,0.576-0.287,0.881-0.429c0.15-0.069,0.313-0.133,0.468-0.196l0.236-0.097
			c0.105-0.041,0.167-0.056,0.251-0.087l0.478-0.158c0.166-0.047,0.328-0.093,0.496-0.139c0.321-0.09,0.643-0.173,0.955-0.235
			c0.616-0.142,1.196-0.245,1.696-0.321c1.002-0.152,1.687-0.182,1.687-0.182S26.173,14.932,25.898,15.049z"/>
		<polygon points="19.008,3.602 19.023,3.723 18.844,3.759 18.818,4.016 19.035,4.016 19.322,3.988 19.47,3.812 19.314,3.75 
			19.229,3.65 19.097,3.441 19.035,3.145 18.792,3.194 18.723,3.299 18.723,3.416 18.84,3.497 		"/>
		<polygon points="18.801,3.7 18.812,3.541 18.671,3.478 18.471,3.525 18.322,3.763 18.322,3.916 18.494,3.916 		"/>
		<path d="M14.689,4.381l-0.045,0.114h-0.213v0.11h0.051c0,0,0.004,0.022,0.008,0.053l0.13-0.01l0.082-0.051l0.021-0.103
			l0.104-0.009l0.042-0.087l-0.097-0.019h-0.083V4.381z"/>
		<polygon points="14.139,4.58 14.131,4.689 14.286,4.676 14.302,4.567 14.209,4.495 		"/>
	</g>
</g>
<g>
</g>
<g>
</g>
<g>
</g>
<g>
</g>
<g>
</g>
<g>
</g>
<g>
</g>
<g>
</g>
<g>
</g>
<g>
</g>
<g>
</g>
<g>
</g>
<g>
</g>
<g>
</g>
<g>
</g>
</svg>
